<mxfile host="app.diagrams.net" modified="2023-05-03T08:21:00.642Z" agent="Mozilla/5.0 (Windows NT 10.0; Win64; x64; rv:109.0) Gecko/20100101 Firefox/112.0" etag="PVluO98CaUcDnDjewTE8" version="21.2.4" type="device">
  <diagram id="UxJHGckpZkvYywocLkhY" name="Page-1">
    <mxGraphModel dx="1195" dy="661" grid="1" gridSize="10" guides="1" tooltips="1" connect="1" arrows="1" fold="1" page="1" pageScale="1" pageWidth="827" pageHeight="1169" math="0" shadow="0">
      <root>
        <mxCell id="0" />
        <mxCell id="1" parent="0" />
        <mxCell id="okE7Q3x3RyowNFd4Rjw1-27" value="" style="html=1;verticalAlign=bottom;endArrow=block;labelBackgroundColor=none;fontFamily=Helvetica;fontSize=12;edgeStyle=elbowEdgeStyle;elbow=vertical;" parent="1" edge="1" target="okE7Q3x3RyowNFd4Rjw1-3" source="okE7Q3x3RyowNFd4Rjw1-5">
          <mxGeometry relative="1" as="geometry">
            <mxPoint x="330" y="370" as="sourcePoint" />
            <mxPoint as="offset" />
            <mxPoint x="900" y="370" as="targetPoint" />
            <Array as="points">
              <mxPoint x="820" y="420" />
            </Array>
          </mxGeometry>
        </mxCell>
        <mxCell id="IWmWCBfLsV875eVu6dva-10" value="changeRunes(amount)" style="html=1;verticalAlign=bottom;endArrow=block;labelBackgroundColor=none;fontFamily=Helvetica;fontSize=12;rounded=0;edgeStyle=elbowEdgeStyle;elbow=vertical;" edge="1" parent="1" source="okE7Q3x3RyowNFd4Rjw1-5" target="okE7Q3x3RyowNFd4Rjw1-7">
          <mxGeometry relative="1" as="geometry">
            <mxPoint x="660" y="560" as="sourcePoint" />
            <mxPoint x="837" y="560" as="targetPoint" />
            <mxPoint as="offset" />
            <Array as="points">
              <mxPoint x="750" y="640" />
              <mxPoint x="680" y="670" />
            </Array>
          </mxGeometry>
        </mxCell>
        <mxCell id="IWmWCBfLsV875eVu6dva-5" value="getRunes()" style="html=1;verticalAlign=bottom;endArrow=block;labelBackgroundColor=none;fontFamily=Helvetica;fontSize=12;rounded=0;edgeStyle=elbowEdgeStyle;elbow=vertical;" edge="1" parent="1" source="okE7Q3x3RyowNFd4Rjw1-5" target="okE7Q3x3RyowNFd4Rjw1-7">
          <mxGeometry relative="1" as="geometry">
            <mxPoint x="650" y="550" as="sourcePoint" />
            <mxPoint x="866" y="552" as="targetPoint" />
            <mxPoint as="offset" />
            <Array as="points">
              <mxPoint x="730" y="550" />
              <mxPoint x="670" y="660" />
            </Array>
          </mxGeometry>
        </mxCell>
        <mxCell id="IWmWCBfLsV875eVu6dva-11" value="addWeaponToInventory(weapon)" style="html=1;verticalAlign=bottom;endArrow=block;labelBackgroundColor=none;fontFamily=Helvetica;fontSize=12;rounded=0;edgeStyle=elbowEdgeStyle;elbow=vertical;" edge="1" parent="1" source="okE7Q3x3RyowNFd4Rjw1-5" target="okE7Q3x3RyowNFd4Rjw1-18">
          <mxGeometry relative="1" as="geometry">
            <mxPoint x="660" y="650" as="sourcePoint" />
            <mxPoint x="837" y="650" as="targetPoint" />
            <mxPoint as="offset" />
            <Array as="points">
              <mxPoint x="540" y="700" />
              <mxPoint x="690" y="680" />
            </Array>
          </mxGeometry>
        </mxCell>
        <mxCell id="IWmWCBfLsV875eVu6dva-3" value="execute(Actor actor, GameMap map)" style="html=1;verticalAlign=bottom;endArrow=block;labelBackgroundColor=none;fontFamily=Helvetica;fontSize=12;rounded=0;edgeStyle=elbowEdgeStyle;elbow=vertical;entryX=0.105;entryY=0.083;entryDx=0;entryDy=0;entryPerimeter=0;" edge="1" parent="1" source="okE7Q3x3RyowNFd4Rjw1-18" target="okE7Q3x3RyowNFd4Rjw1-6">
          <mxGeometry relative="1" as="geometry">
            <mxPoint x="150" y="390" as="sourcePoint" />
            <mxPoint x="631" y="390" as="targetPoint" />
            <mxPoint as="offset" />
            <Array as="points" />
          </mxGeometry>
        </mxCell>
        <mxCell id="okE7Q3x3RyowNFd4Rjw1-1" value=":MerchantKale" style="shape=umlLifeline;perimeter=lifelinePerimeter;whiteSpace=wrap;html=1;container=1;collapsible=0;recursiveResize=0;outlineConnect=0;rounded=1;shadow=0;comic=0;labelBackgroundColor=none;strokeWidth=1;fontFamily=Helvetica;fontSize=12;align=center;" parent="1" vertex="1">
          <mxGeometry x="100" y="80" width="100" height="920" as="geometry" />
        </mxCell>
        <mxCell id="okE7Q3x3RyowNFd4Rjw1-14" value="" style="html=1;points=[];perimeter=orthogonalPerimeter;rounded=0;shadow=0;comic=0;labelBackgroundColor=none;strokeWidth=1;fontFamily=Helvetica;fontSize=12;align=center;" parent="okE7Q3x3RyowNFd4Rjw1-1" vertex="1">
          <mxGeometry x="45" y="70" width="10" height="170" as="geometry" />
        </mxCell>
        <mxCell id="okE7Q3x3RyowNFd4Rjw1-16" value="" style="html=1;verticalAlign=bottom;endArrow=block;labelBackgroundColor=none;fontFamily=Helvetica;fontSize=12;rounded=0;edgeStyle=elbowEdgeStyle;elbow=vertical;" parent="okE7Q3x3RyowNFd4Rjw1-1" edge="1">
          <mxGeometry x="0.067" relative="1" as="geometry">
            <mxPoint x="55" y="240" as="sourcePoint" />
            <mxPoint x="500" y="240" as="targetPoint" />
            <mxPoint as="offset" />
            <Array as="points">
              <mxPoint x="160" y="240" />
            </Array>
          </mxGeometry>
        </mxCell>
        <mxCell id="okE7Q3x3RyowNFd4Rjw1-3" value=":TradeableWeapon" style="shape=umlLifeline;perimeter=lifelinePerimeter;whiteSpace=wrap;html=1;container=1;collapsible=0;recursiveResize=0;outlineConnect=0;rounded=1;shadow=0;comic=0;labelBackgroundColor=none;strokeWidth=1;fontFamily=Helvetica;fontSize=12;align=center;" parent="1" vertex="1">
          <mxGeometry x="940" y="230" width="119" height="740" as="geometry" />
        </mxCell>
        <mxCell id="okE7Q3x3RyowNFd4Rjw1-4" value="" style="html=1;points=[];perimeter=orthogonalPerimeter;rounded=0;shadow=0;comic=0;labelBackgroundColor=none;strokeWidth=1;fontFamily=Helvetica;fontSize=12;align=center;" parent="okE7Q3x3RyowNFd4Rjw1-3" vertex="1">
          <mxGeometry x="54.5" y="185" width="10" height="60" as="geometry" />
        </mxCell>
        <mxCell id="okE7Q3x3RyowNFd4Rjw1-5" value=":PurchaseWeapon&lt;br&gt;Action" style="shape=umlLifeline;perimeter=lifelinePerimeter;whiteSpace=wrap;html=1;container=1;collapsible=0;recursiveResize=0;outlineConnect=0;rounded=1;shadow=0;comic=0;labelBackgroundColor=none;strokeWidth=1;fontFamily=Helvetica;fontSize=12;align=center;" parent="1" vertex="1">
          <mxGeometry x="600" y="295" width="100" height="665" as="geometry" />
        </mxCell>
        <mxCell id="okE7Q3x3RyowNFd4Rjw1-6" value="" style="html=1;points=[];perimeter=orthogonalPerimeter;rounded=0;shadow=0;comic=0;labelBackgroundColor=none;strokeWidth=1;fontFamily=Helvetica;fontSize=12;align=center;" parent="okE7Q3x3RyowNFd4Rjw1-5" vertex="1">
          <mxGeometry x="45" y="90" width="10" height="370" as="geometry" />
        </mxCell>
        <mxCell id="okE7Q3x3RyowNFd4Rjw1-7" value=":RuneManager" style="shape=umlLifeline;perimeter=lifelinePerimeter;whiteSpace=wrap;html=1;container=1;collapsible=0;recursiveResize=0;outlineConnect=0;rounded=1;shadow=0;comic=0;labelBackgroundColor=none;strokeWidth=1;fontFamily=Helvetica;fontSize=12;align=center;" parent="1" vertex="1">
          <mxGeometry x="765" y="70" width="125" height="920" as="geometry" />
        </mxCell>
        <mxCell id="okE7Q3x3RyowNFd4Rjw1-8" value="" style="html=1;points=[];perimeter=orthogonalPerimeter;rounded=0;shadow=0;comic=0;labelBackgroundColor=none;strokeWidth=1;fontFamily=Helvetica;fontSize=12;align=center;" parent="okE7Q3x3RyowNFd4Rjw1-7" vertex="1">
          <mxGeometry x="57.5" y="70" width="10" height="70" as="geometry" />
        </mxCell>
        <mxCell id="okE7Q3x3RyowNFd4Rjw1-28" value="getPurchasePrice()" style="text;html=1;align=center;verticalAlign=middle;resizable=0;points=[];autosize=1;strokeColor=none;fillColor=none;labelBackgroundColor=none;" parent="okE7Q3x3RyowNFd4Rjw1-7" vertex="1">
          <mxGeometry x="-5" y="345" width="130" height="30" as="geometry" />
        </mxCell>
        <mxCell id="IWmWCBfLsV875eVu6dva-12" value="" style="html=1;points=[];perimeter=orthogonalPerimeter;rounded=0;shadow=0;comic=0;labelBackgroundColor=none;strokeWidth=1;fontFamily=Helvetica;fontSize=12;align=center;" vertex="1" parent="okE7Q3x3RyowNFd4Rjw1-7">
          <mxGeometry x="57.5" y="480" width="10" height="90" as="geometry" />
        </mxCell>
        <mxCell id="okE7Q3x3RyowNFd4Rjw1-18" value=":Player" style="shape=umlLifeline;perimeter=lifelinePerimeter;whiteSpace=wrap;html=1;container=1;collapsible=0;recursiveResize=0;outlineConnect=0;rounded=1;shadow=0;comic=0;labelBackgroundColor=none;strokeWidth=1;fontFamily=Helvetica;fontSize=12;align=center;" parent="1" vertex="1">
          <mxGeometry x="380" y="80" width="100" height="890" as="geometry" />
        </mxCell>
        <mxCell id="okE7Q3x3RyowNFd4Rjw1-19" value="" style="html=1;points=[];perimeter=orthogonalPerimeter;rounded=0;shadow=0;comic=0;labelBackgroundColor=none;strokeWidth=1;fontFamily=Helvetica;fontSize=12;align=center;" parent="okE7Q3x3RyowNFd4Rjw1-18" vertex="1">
          <mxGeometry x="45" y="70" width="10" height="600" as="geometry" />
        </mxCell>
        <mxCell id="okE7Q3x3RyowNFd4Rjw1-9" value="" style="html=1;verticalAlign=bottom;endArrow=block;labelBackgroundColor=none;fontFamily=Helvetica;fontSize=12;edgeStyle=elbowEdgeStyle;elbow=vertical;" parent="1" edge="1">
          <mxGeometry relative="1" as="geometry">
            <mxPoint x="155" y="250" as="sourcePoint" />
            <mxPoint as="offset" />
            <mxPoint x="940" y="250" as="targetPoint" />
          </mxGeometry>
        </mxCell>
        <mxCell id="okE7Q3x3RyowNFd4Rjw1-21" value="" style="html=1;verticalAlign=bottom;endArrow=block;labelBackgroundColor=none;fontFamily=Helvetica;fontSize=12;rounded=0;edgeStyle=elbowEdgeStyle;elbow=vertical;exitX=1.5;exitY=0.004;exitDx=0;exitDy=0;exitPerimeter=0;" parent="1" source="okE7Q3x3RyowNFd4Rjw1-19" target="okE7Q3x3RyowNFd4Rjw1-7" edge="1">
          <mxGeometry x="0.067" relative="1" as="geometry">
            <mxPoint x="470" y="150" as="sourcePoint" />
            <mxPoint x="590" y="150" as="targetPoint" />
            <mxPoint as="offset" />
            <Array as="points">
              <mxPoint x="630" y="150" />
              <mxPoint x="575" y="150" />
            </Array>
          </mxGeometry>
        </mxCell>
        <mxCell id="okE7Q3x3RyowNFd4Rjw1-22" value="getInstance()" style="text;html=1;align=center;verticalAlign=middle;resizable=0;points=[];autosize=1;strokeColor=none;fillColor=none;labelBackgroundColor=none;" parent="1" vertex="1">
          <mxGeometry x="505" y="125" width="90" height="30" as="geometry" />
        </mxCell>
        <mxCell id="okE7Q3x3RyowNFd4Rjw1-23" value="&amp;lt;&amp;lt;creates&amp;gt;&amp;gt;" style="text;html=1;align=center;verticalAlign=middle;resizable=0;points=[];autosize=1;strokeColor=none;fillColor=none;labelBackgroundColor=none;" parent="1" vertex="1">
          <mxGeometry x="170" y="290" width="90" height="30" as="geometry" />
        </mxCell>
        <mxCell id="okE7Q3x3RyowNFd4Rjw1-29" value="Weapon purchase price" style="html=1;verticalAlign=bottom;endArrow=open;dashed=1;endSize=8;labelBackgroundColor=none;fontFamily=Helvetica;fontSize=12;elbow=vertical;" parent="1" edge="1" target="okE7Q3x3RyowNFd4Rjw1-5" source="okE7Q3x3RyowNFd4Rjw1-3">
          <mxGeometry x="-0.0315" relative="1" as="geometry">
            <mxPoint x="330" y="400" as="targetPoint" />
            <mxPoint x="890" y="400" as="sourcePoint" />
            <mxPoint as="offset" />
            <Array as="points">
              <mxPoint x="850" y="480" />
            </Array>
          </mxGeometry>
        </mxCell>
        <mxCell id="okE7Q3x3RyowNFd4Rjw1-12" value="&lt;meta charset=&quot;utf-8&quot;&gt;&lt;span style=&quot;color: rgb(0, 0, 0); font-family: Helvetica; font-size: 12px; font-style: normal; font-variant-ligatures: normal; font-variant-caps: normal; font-weight: 400; letter-spacing: normal; text-align: center; text-indent: 0px; text-transform: none; word-spacing: 0px; -webkit-text-stroke-width: 0px; text-decoration-thickness: initial; text-decoration-style: initial; text-decoration-color: initial; float: none; display: inline !important;&quot;&gt;&amp;lt;&amp;lt;creates&amp;gt;&amp;gt;&lt;/span&gt;" style="text;whiteSpace=wrap;html=1;labelBackgroundColor=none;" parent="1" vertex="1">
          <mxGeometry x="445" y="230" width="100" height="40" as="geometry" />
        </mxCell>
        <mxCell id="IWmWCBfLsV875eVu6dva-2" value="addWeapon(tradeableWeapon)" style="html=1;verticalAlign=bottom;endArrow=block;labelBackgroundColor=none;fontFamily=Helvetica;fontSize=12;elbow=vertical;edgeStyle=orthogonalEdgeStyle;curved=1;" edge="1" parent="1" source="okE7Q3x3RyowNFd4Rjw1-1" target="okE7Q3x3RyowNFd4Rjw1-1">
          <mxGeometry x="-0.267" y="55" relative="1" as="geometry">
            <mxPoint x="145" y="190" as="sourcePoint" />
            <mxPoint x="145" y="230" as="targetPoint" />
            <Array as="points">
              <mxPoint x="205" y="190" />
              <mxPoint x="205" y="230" />
            </Array>
            <mxPoint as="offset" />
          </mxGeometry>
        </mxCell>
        <mxCell id="IWmWCBfLsV875eVu6dva-4" value="result" style="html=1;verticalAlign=bottom;endArrow=open;dashed=1;endSize=8;labelBackgroundColor=none;fontFamily=Helvetica;fontSize=12;elbow=vertical;edgeStyle=elbowEdgeStyle;" edge="1" parent="1" source="okE7Q3x3RyowNFd4Rjw1-5" target="okE7Q3x3RyowNFd4Rjw1-18">
          <mxGeometry x="-0.0023" relative="1" as="geometry">
            <mxPoint x="470" y="520" as="targetPoint" />
            <Array as="points">
              <mxPoint x="560" y="750" />
              <mxPoint x="550" y="560" />
            </Array>
            <mxPoint x="978" y="520" as="sourcePoint" />
            <mxPoint as="offset" />
          </mxGeometry>
        </mxCell>
        <mxCell id="IWmWCBfLsV875eVu6dva-7" value="Rune count" style="html=1;verticalAlign=bottom;endArrow=block;labelBackgroundColor=none;fontFamily=Helvetica;fontSize=12;rounded=0;edgeStyle=elbowEdgeStyle;elbow=vertical;dashed=1;" edge="1" parent="1" source="okE7Q3x3RyowNFd4Rjw1-7" target="okE7Q3x3RyowNFd4Rjw1-5">
          <mxGeometry relative="1" as="geometry">
            <mxPoint x="650" y="590" as="sourcePoint" />
            <mxPoint x="827" y="590" as="targetPoint" />
            <mxPoint as="offset" />
            <Array as="points">
              <mxPoint x="760" y="590" />
              <mxPoint x="680" y="603" />
              <mxPoint x="670" y="700" />
            </Array>
          </mxGeometry>
        </mxCell>
        <mxCell id="IWmWCBfLsV875eVu6dva-8" value="Opt" style="shape=umlFrame;whiteSpace=wrap;html=1;pointerEvents=0;width=50;height=20;fontFamily=Helvetica;" vertex="1" parent="1">
          <mxGeometry x="530" y="600" width="340" height="120" as="geometry" />
        </mxCell>
        <mxCell id="IWmWCBfLsV875eVu6dva-9" value="&lt;div&gt;[if the player can &lt;br&gt;&lt;/div&gt;&lt;div&gt;afford the weapon]&lt;/div&gt;" style="text;html=1;align=center;verticalAlign=middle;resizable=0;points=[];autosize=1;strokeColor=none;fillColor=none;fontFamily=Helvetica;" vertex="1" parent="1">
          <mxGeometry x="522" y="625" width="120" height="40" as="geometry" />
        </mxCell>
      </root>
    </mxGraphModel>
  </diagram>
</mxfile>
